<svg xmlns="http://www.w3.org/2000/svg" width="304" height="91" viewBox="0 0 304 91"><defs><style>.a{fill:#f2a3ac;}</style></defs><title>hero-back</title><path class="a" d="M17.8,8.25c-2.79,1-5.69,0-6.48-2.22S12.16,1.21,15,.22s5.69,0,6.48,2.23S20.59,7.27,17.8,8.25Z"/><path class="a" d="M13.89,33.07c-2.81-.91-4.51-3.47-3.78-5.71s3.59-3.31,6.41-2.4,4.51,3.46,3.79,5.71S16.71,34,13.89,33.07Z"/><path class="a" d="M24.93,16.1c-2.95-.16-5.25-2.19-5.13-4.54s2.62-4.13,5.57-4,5.26,2.19,5.14,4.54S27.89,16.25,24.93,16.1Z"/><path class="a" d="M24.38,26.74c-3-.15-5.25-2.18-5.13-4.53s2.62-4.14,5.57-4,5.26,2.18,5.14,4.53S27.34,26.89,24.38,26.74Z"/><path class="a" d="M1.46,15.86a8.31,8.31,0,0,1-.63,3.07,4.65,4.65,0,0,0-.78,2.15,2.46,2.46,0,0,0,0,1.08,4.67,4.67,0,0,0,6.51,3.67,3.9,3.9,0,0,0,1.79-1.35c2.51-3.28,2.06-3.43,3.92-3.45a4.52,4.52,0,0,0,.53.06A4.71,4.71,0,0,0,14,21a3,3,0,0,0,1.75-.73,4.72,4.72,0,0,0,2-3.62v.1A4.68,4.68,0,0,0,16.08,13,3.08,3.08,0,0,0,14.42,12a5.15,5.15,0,0,0-1.12-.2,4.64,4.64,0,0,0-.53,0c-1.85-.21-1.38-.32-3.54-3.84A4,4,0,0,0,7.59,6.48a4.62,4.62,0,0,0-2.07-.6A4.67,4.67,0,0,0,.73,9.45,2.53,2.53,0,0,0,.6,10.53a4.74,4.74,0,0,0,.55,2.22A8.38,8.38,0,0,1,1.46,15.86Z"/><path class="a" d="M88,65.69c-2.51,1.57-5.56,1.23-6.81-.76s-.23-4.89,2.28-6.46,5.55-1.24,6.8.76S90.49,64.12,88,65.69Z"/><path class="a" d="M89.59,90.76c-3-.27-5.16-2.4-4.94-4.74s2.78-4,5.73-3.75,5.16,2.4,4.94,4.74S92.54,91,89.59,90.76Z"/><path class="a" d="M96.65,71.79c-2.92.49-5.6-1-6-3.31s1.65-4.6,4.57-5.1,5.6,1,6,3.31S99.57,71.29,96.65,71.79Z"/><path class="a" d="M98.44,82.29c-2.92.5-5.61-1-6-3.3s1.65-4.61,4.57-5.1,5.61,1,6,3.3S101.36,81.8,98.44,82.29Z"/><path class="a" d="M73.7,76.69a8.3,8.3,0,0,1,0,3.13,4.64,4.64,0,0,0-.29,2.26,2.65,2.65,0,0,0,.25,1.06,4.66,4.66,0,0,0,7.16,2.15,3.85,3.85,0,0,0,1.45-1.7c1.74-3.75,1.26-3.81,3.08-4.23a3.05,3.05,0,0,0,.52,0A4.92,4.92,0,0,0,87,79a3,3,0,0,0,1.54-1.09,4.64,4.64,0,0,0,1.2-4l0,.1a4.71,4.71,0,0,0-2.44-3.36,3,3,0,0,0-1.82-.52,4.36,4.36,0,0,0-1.14.05,3.81,3.81,0,0,0-.51.12c-1.86.2-1.42,0-4.3-3a4,4,0,0,0-1.93-1.14,4.85,4.85,0,0,0-2.15-.14,4.7,4.7,0,0,0-3.9,4.54,2.44,2.44,0,0,0,.12,1.08,4.62,4.62,0,0,0,1,2A8.46,8.46,0,0,1,73.7,76.69Z"/><path class="a" d="M169.35,8.31c-2.79,1-5.69,0-6.47-2.23s.84-4.82,3.62-5.81,5.7,0,6.48,2.23S172.14,7.32,169.35,8.31Z"/><path class="a" d="M165.45,33.12c-2.82-.91-4.52-3.46-3.79-5.7s3.59-3.32,6.41-2.41,4.51,3.47,3.79,5.71S168.26,34,165.45,33.12Z"/><path class="a" d="M176.49,16.15c-3-.15-5.26-2.18-5.14-4.53s2.62-4.13,5.58-4,5.25,2.18,5.13,4.53S179.44,16.31,176.49,16.15Z"/><path class="a" d="M175.93,26.79c-3-.15-5.25-2.18-5.13-4.53s2.62-4.13,5.58-4,5.25,2.19,5.13,4.54S178.89,27,175.93,26.79Z"/><path class="a" d="M153,15.92a8.36,8.36,0,0,1-.63,3.07,4.64,4.64,0,0,0-.77,2.14,2.51,2.51,0,0,0,0,1.09,4.7,4.7,0,0,0,6.52,3.67,4,4,0,0,0,1.78-1.35c2.52-3.28,2.06-3.44,3.92-3.45a4.78,4.78,0,0,0,.53.06,4.67,4.67,0,0,0,1.13-.09,3,3,0,0,0,1.75-.73,4.67,4.67,0,0,0,2-3.62v.11A4.64,4.64,0,0,0,167.63,13,3,3,0,0,0,166,12.1a4.61,4.61,0,0,0-1.12-.2h-.53c-1.85-.2-1.38-.31-3.54-3.84a3.88,3.88,0,0,0-1.64-1.52,4.63,4.63,0,0,0-2.06-.61,4.69,4.69,0,0,0-4.8,3.58,2.5,2.5,0,0,0-.12,1.08,4.58,4.58,0,0,0,.54,2.21A8.2,8.2,0,0,1,153,15.92Z"/><path class="a" d="M239.53,65.74C237,67.32,234,67,232.73,65s-.24-4.89,2.27-6.47,5.55-1.23,6.8.76S242,64.17,239.53,65.74Z"/><path class="a" d="M241.14,90.81c-2.95-.27-5.16-2.39-4.94-4.74s2.78-4,5.73-3.74,5.16,2.39,4.95,4.74S244.09,91.09,241.14,90.81Z"/><path class="a" d="M248.21,71.84c-2.92.5-5.61-1-6-3.3s1.65-4.61,4.57-5.1,5.6,1,6,3.3S251.13,71.34,248.21,71.84Z"/><path class="a" d="M250,82.35c-2.92.49-5.6-1-6-3.31s1.66-4.6,4.57-5.1,5.61,1,6,3.31S252.91,81.85,250,82.35Z"/><path class="a" d="M225.25,76.74a8.3,8.3,0,0,1,.05,3.13,4.67,4.67,0,0,0-.28,2.27,2.45,2.45,0,0,0,.25,1,4.68,4.68,0,0,0,5.17,3,4.55,4.55,0,0,0,2-.84,3.94,3.94,0,0,0,1.45-1.71c1.73-3.75,1.25-3.8,3.07-4.22a4.6,4.6,0,0,0,.52-.06,4.31,4.31,0,0,0,1.09-.33,3.07,3.07,0,0,0,1.55-1.09,4.69,4.69,0,0,0,1.2-4v.1a4.64,4.64,0,0,0-2.44-3.35,3,3,0,0,0-1.82-.53,5.5,5.5,0,0,0-1.14,0l-.51.12c-1.85.2-1.42,0-4.3-3a3.88,3.88,0,0,0-1.93-1.13,4.55,4.55,0,0,0-2.15-.14,4.66,4.66,0,0,0-3.89,4.54,2.45,2.45,0,0,0,.11,1.08,4.63,4.63,0,0,0,1,2A8.41,8.41,0,0,1,225.25,76.74Z"/></svg>